<svg width="173" height="173" viewBox="0 0 173 173" fill="none" xmlns="http://www.w3.org/2000/svg">
<path d="M7.82052 33.356L17.723 23.4456L112.326 34.5759L113.048 34.6608L113.562 34.1468L140.898 6.81026L140.907 6.80104L140.916 6.79167C142.515 5.13615 144.428 3.81566 146.543 2.90724C148.658 1.99882 150.932 1.52065 153.233 1.50065C155.535 1.48065 157.817 1.91922 159.948 2.79076C162.078 3.66229 164.013 4.94935 165.641 6.57682C167.268 8.20429 168.555 10.1396 169.427 12.2698C170.298 14.4 170.737 16.6824 170.717 18.984C170.697 21.2854 170.219 23.5599 169.31 25.6747C168.402 27.7894 167.081 29.7021 165.426 31.301L165.416 31.3101L165.407 31.3195L138.777 57.9592L138.263 58.4731L138.348 59.1948L149.469 153.798L138.886 164.381L105.799 93.771L104.891 91.8351L103.38 93.3469L72.1822 124.544L71.6146 125.112L71.7719 125.899L78.2721 158.409L67.0911 169.59L47.9817 125.014L47.7454 124.463L47.194 124.226L2.62729 105.126L13.808 93.9455L46.318 100.455L47.1054 100.612L47.6732 100.045L78.3056 69.4123L79.8023 67.9155L77.8941 66.9994L7.82052 33.356Z" fill="black" stroke="white" stroke-width="3"/>
</svg>
